<svg width="40" height="40" viewBox="0 0 40 40" fill="none" xmlns="http://www.w3.org/2000/svg">
<g id="Group 125">
<rect id="Rectangle 3922" width="40" height="40" rx="20" fill="#ECFFD8"/>
<g id="Black">
<path id="Vector" d="M18.3292 11.0374C13.5104 11.2648 11.6166 12.8395 11.1452 17.012C10.9516 18.6919 10.9516 21.3108 11.1452 22.9907C11.5745 26.7927 13.2032 28.4222 17.0119 28.8643C17.3234 28.8979 18.123 28.9527 18.7921 28.9779C20.1347 29.0327 21.9401 28.9821 22.9881 28.8643C26.7968 28.4222 28.4255 26.7927 28.8548 22.9907C29.0484 21.3108 29.0484 18.6919 28.8548 17.012C28.4255 13.21 26.7716 11.5595 22.9797 11.1385C21.7634 11.0037 19.8822 10.9616 18.3292 11.0374ZM20.7575 14.7215C22.0664 15.012 23.1059 16.0183 23.4594 17.3278C23.5731 17.7656 23.5857 18.574 23.4805 19.0077C23.228 20.035 22.5209 20.9277 21.5782 21.3992C21.4646 21.4582 21.2079 21.5592 21.0101 21.6266C20.6818 21.736 20.6018 21.7445 20 21.7445C19.3982 21.7445 19.3182 21.736 18.9899 21.6266C18.7921 21.5592 18.5396 21.4582 18.4218 21.3992C17.4791 20.9277 16.772 20.035 16.5195 19.0077C16.4143 18.574 16.4269 17.7656 16.5406 17.3278C16.6584 16.9025 16.9025 16.3973 17.1761 16.0394C17.9883 14.9615 19.4361 14.431 20.7575 14.7215ZM21.1574 22.7592C23.0933 22.8265 24.4484 23.3065 25.2902 24.2328C25.7952 24.7844 25.9593 25.218 25.8331 25.6601C25.7363 25.997 25.5132 26.2243 25.0797 26.4391C24.0781 26.9275 22.9249 27.1085 20.5261 27.1464C18.0094 27.1885 16.5616 27.0454 15.4127 26.6454C14.4531 26.3128 14.1038 25.9212 14.1627 25.2602C14.1922 24.9402 14.3563 24.6539 14.773 24.2076C15.4926 23.4413 16.4522 23.0244 17.9799 22.8181C18.3881 22.7634 19.7854 22.7044 20.2525 22.7255C20.4251 22.7297 20.8333 22.7465 21.1574 22.7592Z" fill="#46BB0C"/>
</g>
</g>
</svg>
