<svg width="24" height="24" viewBox="0 0 24 24" fill="none" xmlns="http://www.w3.org/2000/svg">
<path d="M12.286 19.6929L12.286 19.6929L12.2852 19.6933C12.0608 19.8253 11.7838 19.8253 11.5594 19.6933L11.5594 19.6933L11.5586 19.6929L7.09741 17.1799L7.09716 17.1798C6.85997 17.048 6.72758 16.8113 6.72758 16.5317V14.3435C6.72758 14.043 6.56245 13.758 6.29245 13.608L6.29231 13.6079L5.19113 13.0009L5.11699 12.96V13.0447V17.4211C5.11699 17.7213 5.28174 18.0059 5.53694 18.156L5.53772 18.1565L11.4946 21.516C11.4947 21.5161 11.4949 21.5162 11.495 21.5163C11.7504 21.6663 12.0659 21.6663 12.3213 21.5163C12.3215 21.5162 12.3216 21.5161 12.3218 21.516L18.2783 18.1566C18.2784 18.1566 18.2784 18.1566 18.2784 18.1566C18.5494 18.006 18.6993 17.7345 18.6993 17.4211V13.0447V12.9598L18.6251 13.0009L17.4541 13.65C17.4539 13.65 17.4538 13.6501 17.4537 13.6502C17.224 13.7728 17.1029 14.0026 17.1029 14.2588V14.3088H17.117V16.5317C17.117 16.7961 16.9713 17.0479 16.7467 17.1802C16.7466 17.1802 16.7465 17.1803 16.7463 17.1804L12.286 19.6929Z" fill="#46BB0C" stroke="#46BB0C" stroke-width="0.1"/>
<path d="M21.9721 7.88698L12.2916 2.86384L12.2916 2.86384L12.2909 2.8635C12.051 2.74352 11.7662 2.74352 11.5262 2.8635L11.5261 2.86358L1.3896 7.97416L1.36211 7.98802V8.01881V9.45881V9.48824L1.38784 9.50253L11.5102 15.1214L11.5102 15.1214L11.5111 15.1218C11.7657 15.2566 12.0656 15.2566 12.3202 15.1218L12.3202 15.1218L12.3211 15.1213L20.6364 10.5049L20.6364 10.5049C20.6821 10.4795 20.7374 10.4835 20.783 10.5098C20.8288 10.5361 20.8586 10.5811 20.8586 10.6306V14.4565C20.8586 14.597 20.9798 14.7182 21.1203 14.7182H22.2074C22.348 14.7182 22.4692 14.597 22.4692 14.4565V8.63999C22.4692 8.32422 22.2889 8.03982 22.0199 7.8904L21.987 7.87208L21.9721 7.88698ZM12.2462 4.64706L20.3369 8.83911L19.3738 9.37272L19.2046 9.46646H19.2195L17.8914 10.2057L17.8913 10.2057L12.2734 13.3252C12.2733 13.3253 12.2731 13.3254 12.273 13.3254C12.0479 13.4444 11.7834 13.4444 11.5583 13.3254C11.5581 13.3254 11.558 13.3253 11.5579 13.3252L5.93996 10.2057L5.93991 10.2057L4.44349 9.37277L4.4434 9.37272L3.4803 8.83911L11.5709 4.64706C11.571 4.64701 11.5712 4.64695 11.5713 4.6469C11.7829 4.54121 12.0343 4.54121 12.2459 4.6469C12.246 4.64695 12.2461 4.64701 12.2462 4.64706Z" fill="#46BB0C" stroke="#46BB0C" stroke-width="0.1"/>
</svg>
