<svg width="25" height="25" viewBox="0 0 25 25" fill="none" xmlns="http://www.w3.org/2000/svg">
<g id="1">
<g id="Black">
<path id="Vector" d="M1.60156 0.0893641C0.893555 0.319339 0.288086 0.940759 0.078125 1.65515C0.00976563 1.89001 0 2.38911 0 5.60386C0 9.12197 0.00488281 9.29812 0.0976563 9.59171C0.341797 10.3893 0.991211 10.9862 1.82617 11.1771C2.10938 11.2456 2.63184 11.2505 5.75196 11.2407C9.292 11.226 9.35547 11.2211 9.62403 11.1183C10.3369 10.8492 10.8301 10.355 11.0986 9.64553C11.2061 9.37152 11.2061 9.33238 11.2207 5.76043C11.2305 2.63376 11.2256 2.1102 11.1572 1.8264C10.9668 0.98969 10.3711 0.338911 9.5752 0.0942574C9.28223 0.00128937 9.11133 -0.00360394 5.57129 0.00128937C2.12891 0.00128937 1.86035 0.00618267 1.60156 0.0893641ZM9.00879 1.616C9.23829 1.67961 9.45801 1.87044 9.55079 2.08574C9.6045 2.21296 9.61915 2.85884 9.61915 5.61364V8.98007L9.51172 9.19537C9.42872 9.35684 9.34083 9.44492 9.17969 9.52321L8.96485 9.63575H5.61035C3.35938 9.63575 2.20703 9.61617 2.11426 9.58192C1.86524 9.48895 1.66992 9.24919 1.61133 8.97518C1.57715 8.80882 1.5625 7.63937 1.57227 5.44728C1.58691 2.27657 1.5918 2.16892 1.68457 2.00745C1.80664 1.80194 1.98731 1.66004 2.20215 1.61111C2.46582 1.5475 8.7793 1.55239 9.00879 1.616Z" fill="#46BB0C"/>
<path id="Vector_2" d="M15.4201 0.0893621C14.6242 0.343802 14.0334 0.99458 13.8429 1.8264C13.7746 2.1102 13.7697 2.63376 13.7795 5.76043L13.7941 9.36663L13.9113 9.67489C14.1457 10.311 14.7072 10.8737 15.342 11.1086L15.6496 11.226L19.2482 11.2407C22.3683 11.2505 22.8908 11.2456 23.174 11.1771C24.009 10.9862 24.6584 10.3893 24.9025 9.59171C24.9953 9.29812 25.0002 9.12197 25.0002 5.60385C25.0002 2.38911 24.9904 1.89001 24.922 1.65515C24.7121 0.930971 24.1017 0.314444 23.384 0.0893621C23.1056 0.00128746 22.8859 -0.00360584 19.3947 0.00128746C15.9572 0.00128746 15.6789 0.00617981 15.4201 0.0893621ZM22.7736 1.61111C23.0129 1.66493 23.1886 1.79215 23.3156 2.00745C23.4084 2.16892 23.4133 2.27657 23.4279 5.44728C23.4377 7.63937 23.423 8.80882 23.3888 8.97518C23.3302 9.24919 23.1349 9.48895 22.8859 9.58192C22.7931 9.61617 21.6408 9.63575 19.3898 9.63575H16.0353L15.8205 9.52321C15.6593 9.44492 15.5715 9.35684 15.4933 9.19537L15.381 8.98007V5.60385C15.381 2.3206 15.3859 2.22274 15.4787 2.03191C15.591 1.80683 15.7619 1.66004 15.9865 1.60621C16.2062 1.55728 22.549 1.55728 22.7736 1.61111Z" fill="#46BB0C"/>
<path id="Vector_3" d="M1.78711 13.8242C0.986329 14.0199 0.336914 14.6267 0.0976563 15.4047C0.00488281 15.6983 0 15.8744 0 19.3925C0 22.6073 0.00976563 23.1064 0.078125 23.3412C0.288086 24.0654 0.898438 24.682 1.61621 24.907C1.89453 24.9951 2.11914 25 5.59082 25C9.10645 25 9.28223 24.9951 9.5752 24.9021C10.3711 24.6575 10.9668 24.0067 11.1572 23.17C11.2256 22.8862 11.2305 22.3626 11.2207 19.236C11.2061 15.6885 11.2012 15.6249 11.0986 15.3558C10.8301 14.6414 10.3369 14.1472 9.62891 13.878C9.35059 13.7704 9.32618 13.7704 5.71289 13.7606C2.69043 13.7557 2.02637 13.7655 1.78711 13.8242ZM9.17969 15.4683C9.34083 15.5515 9.42872 15.6396 9.51172 15.801L9.61915 16.0163V19.3828C9.61915 22.1376 9.6045 22.7834 9.55079 22.9107C9.45801 23.126 9.23829 23.3168 9.00879 23.3804C8.76465 23.4489 2.50977 23.4538 2.22656 23.3853C1.98731 23.3315 1.81152 23.2042 1.68457 22.9889C1.5918 22.8275 1.58691 22.7198 1.57227 19.5491C1.5625 17.357 1.57715 16.1876 1.61133 16.0212C1.66504 15.7521 1.86524 15.5074 2.09961 15.4145C2.17774 15.3851 3.48633 15.3655 5.59082 15.3655L8.96485 15.3606L9.17969 15.4683Z" fill="#46BB0C"/>
<path id="Vector_4" d="M15.6982 13.7949C14.8828 13.9612 14.1699 14.5729 13.8916 15.3606C13.7988 15.62 13.7939 15.7912 13.7793 19.236C13.7695 22.3577 13.7744 22.8862 13.8428 23.17C14.0332 24.0067 14.6289 24.6575 15.4248 24.9021C15.7178 24.9951 15.8935 25 19.4092 25C22.8808 25 23.1055 24.9951 23.3838 24.907C24.1015 24.682 24.7119 24.0654 24.9219 23.3412C24.9902 23.1064 25 22.6073 25 19.3925C25 15.8744 24.9951 15.6983 24.9023 15.4047C24.6631 14.6169 24.0088 14.0151 23.1885 13.8193C22.9248 13.7606 22.3389 13.7459 19.3847 13.7508C17.4658 13.7557 15.8056 13.7753 15.6982 13.7949ZM22.8857 15.4145C23.1348 15.5074 23.3301 15.7472 23.3887 16.0212C23.4228 16.1876 23.4375 17.357 23.4277 19.5491C23.4131 22.7198 23.4082 22.8275 23.3154 22.9889C23.1885 23.2042 23.0127 23.3315 22.7734 23.3853C22.4902 23.4538 16.2353 23.4489 15.9912 23.3804C15.7617 23.3168 15.542 23.126 15.4492 22.9107C15.3955 22.7834 15.3808 22.1376 15.3808 19.3828V16.0163L15.4931 15.801C15.5713 15.6396 15.6592 15.5515 15.8203 15.4683L16.0351 15.3606H19.3896C21.6406 15.3606 22.793 15.3802 22.8857 15.4145Z" fill="#46BB0C"/>
</g>
</g>
</svg>
