<svg width="34" height="34" viewBox="0 0 34 34" fill="none" xmlns="http://www.w3.org/2000/svg">
<g id="Logo 1" clip-path="url(#clip0_252_6613)">
<path id="Vector" d="M34 17C34 26.3889 26.3889 34 17 34C7.61114 34 0 26.3889 0 17C0 7.61114 7.61114 0 17 0C26.3889 0 34 7.61114 34 17Z" fill="#46BB0C"/>
<g id="Clip path group">
<mask id="mask0_252_6613" style="mask-type:luminance" maskUnits="userSpaceOnUse" x="8" y="4" width="20" height="26">
<g id="clip0_30_1525">
<path id="Vector_2" d="M27.3889 4.72223H8.97223V29.2778H27.3889V4.72223Z" fill="white"/>
</g>
</mask>
<g mask="url(#mask0_252_6613)">
<g id="Group">
<path id="Vector_3" fill-rule="evenodd" clip-rule="evenodd" d="M9.33333 18.9008L23.7676 10.4409C23.9967 10.3063 24.2603 10.3063 24.4894 10.4409C24.7195 10.5755 24.8504 10.8073 24.8504 11.0757V14.6844C24.8504 14.9537 24.7186 15.1847 24.4894 15.3193L10.0552 23.7792C9.82525 23.9138 9.5625 23.9138 9.33333 23.7792C9.10336 23.6445 8.97241 23.4136 8.97241 23.1443V19.5356C8.97241 19.2663 9.10416 19.0354 9.33333 18.9008Z" fill="white"/>
<path id="Vector_4" fill-rule="evenodd" clip-rule="evenodd" d="M9.33327 10.0904L18.3198 4.82344C18.5499 4.68882 18.8126 4.68882 19.0417 4.82344C19.2717 4.95807 19.4027 5.18899 19.4027 5.4583V9.06702C19.4027 9.33628 19.2717 9.5672 19.0417 9.70183L10.0552 14.9688C9.82518 15.1034 9.56244 15.1034 9.33327 14.9688C9.1033 14.8342 8.97235 14.6033 8.97235 14.334V10.7252C8.97235 10.456 9.1033 10.2251 9.33327 10.0904Z" fill="white"/>
<path id="Vector_5" fill-rule="evenodd" clip-rule="evenodd" d="M14.7811 24.298L23.7677 19.0311C23.9968 18.8964 24.2604 18.8964 24.4895 19.0311C24.7195 19.1657 24.8505 19.3975 24.8505 19.6659V23.6981L27.3879 25.7083H21.4207L15.5021 29.1773C15.2721 29.3119 15.0094 29.3119 14.7794 29.1773C14.5503 29.0426 14.4185 28.8117 14.4185 28.5424V24.9337C14.4185 24.6644 14.5503 24.4335 14.7794 24.2989L14.7811 24.298Z" fill="white"/>
</g>
</g>
</g>
</g>
<defs>
<clipPath id="clip0_252_6613">
<rect width="34" height="34" fill="white"/>
</clipPath>
</defs>
</svg>
