<svg width="35" height="35" viewBox="0 0 35 35" fill="none" xmlns="http://www.w3.org/2000/svg">
<path d="M29.9819 17.3286V6.70361C29.9819 6.14003 29.758 5.59953 29.3595 5.20101C28.961 4.8025 28.4205 4.57861 27.8569 4.57861H6.60693C6.04335 4.57861 5.50285 4.8025 5.10433 5.20101C4.70582 5.59953 4.48193 6.14003 4.48193 6.70361V27.9536C4.48193 28.5172 4.70582 29.0577 5.10433 29.4562C5.50285 29.8547 6.04335 30.0786 6.60693 30.0786H17.2319" stroke="#46BB0C" stroke-width="2" stroke-linecap="round" stroke-linejoin="round"/>
<path d="M22.8987 27.2452C25.2459 27.2452 27.1487 25.3424 27.1487 22.9952C27.1487 20.648 25.2459 18.7452 22.8987 18.7452C20.5515 18.7452 18.6487 20.648 18.6487 22.9952C18.6487 25.3424 20.5515 27.2452 22.8987 27.2452Z" stroke="#46BB0C" stroke-width="2"/>
<path d="M26.4403 25.8287L29.982 28.662M10.1487 11.662H24.3153M10.1487 17.3287H15.8153" stroke="#46BB0C" stroke-width="2" stroke-linecap="round" stroke-linejoin="round"/>
</svg>
