<svg width="75" height="20" viewBox="0 0 75 20" fill="none" xmlns="http://www.w3.org/2000/svg">
<path d="M3.816 12.876H9.468V15H0.9V13.056L6.516 4.56H0.9V2.436H9.468V4.38L3.816 12.876ZM12.8911 3.84C12.4471 3.84 12.0751 3.702 11.7751 3.426C11.4871 3.138 11.3431 2.784 11.3431 2.364C11.3431 1.944 11.4871 1.596 11.7751 1.32C12.0751 1.032 12.4471 0.887999 12.8911 0.887999C13.3351 0.887999 13.7011 1.032 13.9891 1.32C14.2891 1.596 14.4391 1.944 14.4391 2.364C14.4391 2.784 14.2891 3.138 13.9891 3.426C13.7011 3.702 13.3351 3.84 12.8911 3.84ZM14.1331 5.028V15H11.6131V5.028H14.1331ZM26.1629 5.028L19.9889 19.716H17.3069L19.4669 14.748L15.4709 5.028H18.2969L20.8709 11.994L23.4809 5.028H26.1629ZM31.9493 15.162C30.9893 15.162 30.1253 14.952 29.3573 14.532C28.5893 14.1 27.9833 13.494 27.5393 12.714C27.1073 11.934 26.8913 11.034 26.8913 10.014C26.8913 8.994 27.1133 8.094 27.5573 7.314C28.0133 6.534 28.6313 5.934 29.4113 5.514C30.1913 5.082 31.0613 4.866 32.0213 4.866C32.9813 4.866 33.8513 5.082 34.6313 5.514C35.4113 5.934 36.0233 6.534 36.4673 7.314C36.9233 8.094 37.1513 8.994 37.1513 10.014C37.1513 11.034 36.9173 11.934 36.4493 12.714C35.9933 13.494 35.3693 14.1 34.5773 14.532C33.7973 14.952 32.9213 15.162 31.9493 15.162ZM31.9493 12.966C32.4053 12.966 32.8313 12.858 33.2273 12.642C33.6353 12.414 33.9593 12.078 34.1993 11.634C34.4393 11.19 34.5593 10.65 34.5593 10.014C34.5593 9.066 34.3073 8.34 33.8033 7.836C33.3113 7.32 32.7053 7.062 31.9853 7.062C31.2653 7.062 30.6593 7.32 30.1673 7.836C29.6873 8.34 29.4473 9.066 29.4473 10.014C29.4473 10.962 29.6813 11.694 30.1493 12.21C30.6293 12.714 31.2293 12.966 31.9493 12.966ZM46.7038 12.606H41.6998L40.8718 15H38.2258L42.7438 2.418H45.6778L50.1958 15H47.5318L46.7038 12.606ZM46.0198 10.59L44.2018 5.334L42.3838 10.59H46.0198ZM54.4046 6.468C54.7286 6.012 55.1726 5.634 55.7366 5.334C56.3126 5.022 56.9666 4.866 57.6986 4.866C58.5506 4.866 59.3186 5.076 60.0026 5.496C60.6986 5.916 61.2446 6.516 61.6406 7.296C62.0486 8.064 62.2526 8.958 62.2526 9.978C62.2526 10.998 62.0486 11.904 61.6406 12.696C61.2446 13.476 60.6986 14.082 60.0026 14.514C59.3186 14.946 58.5506 15.162 57.6986 15.162C56.9666 15.162 56.3186 15.012 55.7546 14.712C55.2026 14.412 54.7526 14.034 54.4046 13.578V19.752H51.8846V5.028H54.4046V6.468ZM59.6786 9.978C59.6786 9.378 59.5526 8.862 59.3006 8.43C59.0606 7.986 58.7366 7.65 58.3286 7.422C57.9326 7.194 57.5006 7.08 57.0326 7.08C56.5766 7.08 56.1446 7.2 55.7366 7.44C55.3406 7.668 55.0166 8.004 54.7646 8.448C54.5246 8.892 54.4046 9.414 54.4046 10.014C54.4046 10.614 54.5246 11.136 54.7646 11.58C55.0166 12.024 55.3406 12.366 55.7366 12.606C56.1446 12.834 56.5766 12.948 57.0326 12.948C57.5006 12.948 57.9326 12.828 58.3286 12.588C58.7366 12.348 59.0606 12.006 59.3006 11.562C59.5526 11.118 59.6786 10.59 59.6786 9.978ZM66.6038 6.468C66.9278 6.012 67.3718 5.634 67.9358 5.334C68.5118 5.022 69.1658 4.866 69.8978 4.866C70.7498 4.866 71.5178 5.076 72.2018 5.496C72.8978 5.916 73.4438 6.516 73.8398 7.296C74.2478 8.064 74.4518 8.958 74.4518 9.978C74.4518 10.998 74.2478 11.904 73.8398 12.696C73.4438 13.476 72.8978 14.082 72.2018 14.514C71.5178 14.946 70.7498 15.162 69.8978 15.162C69.1658 15.162 68.5178 15.012 67.9538 14.712C67.4018 14.412 66.9518 14.034 66.6038 13.578V19.752H64.0838V5.028H66.6038V6.468ZM71.8778 9.978C71.8778 9.378 71.7518 8.862 71.4998 8.43C71.2598 7.986 70.9358 7.65 70.5278 7.422C70.1318 7.194 69.6998 7.08 69.2318 7.08C68.7758 7.08 68.3438 7.2 67.9358 7.44C67.5398 7.668 67.2158 8.004 66.9638 8.448C66.7238 8.892 66.6038 9.414 66.6038 10.014C66.6038 10.614 66.7238 11.136 66.9638 11.58C67.2158 12.024 67.5398 12.366 67.9358 12.606C68.3438 12.834 68.7758 12.948 69.2318 12.948C69.6998 12.948 70.1318 12.828 70.5278 12.588C70.9358 12.348 71.2598 12.006 71.4998 11.562C71.7518 11.118 71.8778 10.59 71.8778 9.978Z" fill="black"/>
</svg>
